ONE TWO THREE (1961)

One, Two, Three is a 1961 American comedy film directed by Billy Wilder and written by him and I.A.L. Diamond. It is based on the 1929 Hungarian one-act play Egy, kettö, három by Ferenc Molnár, with a \\\\\\\"plot borrowed partly from\\\\\\\" Ninotchka, a 1939 film co-written by Wilder.[2][3] The comedy features James Cagney, Horst Buchholz, Pamela Tiffin, Arlene Francis, Leon Askin, Howard St. John, and others.[4] It would be Cagney\\\\\\\'s last film appearance until Ragtime, 20 years later.[5][6]
The film is primarily set in West Berlin during the Cold War, but before the construction of the Berlin Wall, and politics is predominant in the premise.
C.R. \\\\\\\"Mac\\\\\\\" MacNamara is a high-ranking executive in the Coca-Cola Company, assigned to West Berlin after a business fiasco a few years earlier in the Middle East (about which he is still bitter). Nevertheless, Mac is angling to become head of Western European Coca-Cola Operations, based in London. After working on an arrangement to introduce Coke into the Soviet Union, Mac receives a call from his boss, W.P. Hazeltine in Atlanta. Scarlett Hazeltine, the boss\\\\\\\'s hot-blooded 17-year-old socialite daughter, is coming to Berlin and Mac receives the unenviable task of taking care of this young whirlwind.

Cast
•	James Cagney as C.R. \\\\\\\"Mac\\\\\\\" MacNamara
•	Horst Buchholz as Otto Ludwig Piffl
•	Pamela Tiffin as Scarlett Hazeltine
•	Arlene Francis as Phyllis MacNamara
•	Liselotte Pulver as Fräulein Ingeborg (Mac\\\\\\\'s secretary)
•	Howard St. John as Wendell P. Hazeltine
•	Hanns Lothar as Schlemmer (Mac\\\\\\\'s assistant and henchman)
•	Leon Askin as Peripetchikoff
•	Ralf Wolter as Borodenko
•	Karl Lieffen as Fritz (Mac\\\\\\\'s chauffeur)
•	Hubert von Meyerinck as Count von Droste-Schattenburg
•	Loïs Bolton as Melanie Hazeltine
•	Peter Capell as Mishkin
•	Til Kiwe as Reporter
•	Henning Schlüter as Dr. Bauer
•	Karl Ludwig Lindt as Zeidlitz

Awards
Nominations
•	Academy Awards: Oscar, Best Cinematography, Black-and-White, Daniel L. Fapp; 1962.
•	Golden Globes: Golden Globe, Best Motion Picture - Comedy; Best Supporting Actress, Pamela Tiffin; 1962.
•	Laurel Awards: Golden Laurel, Top Comedy, 4th place; Top Male Comedy Performance, James Cagney, 4th place; 1962.
•	Writers Guild of America Awards: Best Written American Comedy (Screen), Billy Wilder and I.A.L. Diamond; 1962.
                                                                                                                                               (Wikipedia)




General
Complete name                    : C:\\\\\\\\Users\\\\\\\\GEORGE\\\\\\\\Desktop\\\\\\\\Pirate Bay\\\\\\\\One Two Three (Greek Subs)\\\\\\\\ONE TWO THREE.avi
Format                           : AVI
Format/Info                      : Audio Video Interleave
File size                        : 999 MiB
Duration                         : 1h 44mn
Overall bit rate                 : 1 341 Kbps
Writing application              : FairUse Wizard - http://fairusewizard.com
Writing library                  : The best and REALLY easy backup tool

Video
ID                               : 0
Format                           : MPEG-4 Visual
Format profile                   : Simple@L3
Format settings, BVOP            : No
Format settings, QPel            : No
Format settings, GMC             : No warppoints
Format settings, Matrix          : Default (H.263)
Codec ID                         : XVID
Codec ID/Hint                    : XviD
Duration                         : 1h 44mn
Bit rate                         : 1 203 Kbps
Width                            : 688 pixels
Height                           : 384 pixels
Display aspect ratio             : 16:9
Frame rate                       : 25.000 fps
Color space                      : YUV
Chroma subsampling               : 4:2:0
Bit depth                        : 8 bits
Scan type                        : Progressive
Compression mode                 : Lossy
Bits/(Pixel*Frame)               : 0.182
Stream size                      : 896 MiB (90%)
Writing library                  : XviD 1.2.0.dev47 (UTC 2006-11-01)

Audio
ID                               : 1
Format                           : MPEG Audio
Format version                   : Version 1
Format profile                   : Layer 3
Mode                             : Joint stereo
Mode extension                   : MS Stereo
Codec ID                         : 55
Codec ID/Hint                    : MP3
Duration                         : 1h 44mn
Bit rate mode                    : Constant
Bit rate                         : 128 Kbps
Channel(s)                       : 2 channels
Sampling rate                    : 48.0 KHz
Compression mode                 : Lossy
Stream size                      : 95.3 MiB (10%)
Alignment                        : Aligned on interleaves
Interleave, duration             : 40 ms (1.00 video frame)
Interleave, preload duration     : 504 ms
Writing library                  : LAME3.97 
Encoding settings                : -m j -V 4 -q 2 -lowpass 17 -b 128
